<?xml version="1.0" standalone="no"?>
<!DOCTYPE svg PUBLIC "-//W3C//DTD SVG 20010904//EN"
 "http://www.w3.org/TR/2001/REC-SVG-20010904/DTD/svg10.dtd">
<svg version="1.0" xmlns="http://www.w3.org/2000/svg"
 width="512.000000pt" height="512.000000pt" viewBox="0 0 512.000000 512.000000"
 preserveAspectRatio="xMidYMid meet">

<g transform="translate(0.000000,512.000000) scale(0.100000,-0.100000)"
fill="#000000" stroke="none">
<path d="M471 5093 c-59 -21 -124 -87 -144 -148 -16 -45 -17 -237 -17 -2386 0
-2313 0 -2339 20 -2392 21 -57 63 -103 120 -133 34 -18 97 -19 1770 -19 1684
0 1736 1 1773 19 45 22 91 66 115 110 16 28 17 97 20 839 l2 809 -75 -68 -75
-67 0 -719 0 -719 -25 -24 -24 -25 -1709 0 -1709 0 -21 23 -22 23 0 2343 0
2342 25 24 24 25 1704 0 c1664 0 1705 0 1728 -19 l24 -19 3 -927 c1 -548 6
-925 11 -923 5 2 39 31 75 66 l66 64 0 856 c0 573 -4 870 -11 895 -14 53 -74
116 -137 144 l-53 23 -1707 -1 c-1519 0 -1712 -2 -1751 -16z"/>
<path d="M794 4618 c-22 -10 -44 -47 -44 -72 0 -7 9 -25 21 -40 25 -32 86 -37
112 -8 27 30 22 87 -9 111 -29 23 -48 25 -80 9z"/>
<path d="M1193 4620 c-45 -18 -55 -72 -22 -114 27 -35 90 -37 113 -4 23 33 20
75 -9 103 -25 26 -45 30 -82 15z"/>
<path d="M1593 4620 c-44 -18 -57 -86 -23 -120 45 -45 130 -13 130 49 0 54
-57 92 -107 71z"/>
<path d="M1976 4607 c-51 -51 -22 -127 47 -127 94 0 103 128 10 146 -26 5 -37
1 -57 -19z"/>
<path d="M2376 4609 c-32 -25 -37 -86 -8 -112 30 -27 87 -22 111 9 12 15 21
33 21 40 0 26 -23 62 -47 73 -34 16 -47 14 -77 -10z"/>
<path d="M2774 4607 c-55 -48 -25 -127 47 -127 29 0 42 6 58 26 28 36 26 60
-8 95 -36 35 -61 37 -97 6z"/>
<path d="M3184 4618 c-22 -10 -44 -47 -44 -72 0 -7 9 -25 21 -40 25 -32 86
-37 112 -8 27 30 22 87 -9 111 -29 23 -48 25 -80 9z"/>
<path d="M3585 4618 c-49 -26 -58 -69 -24 -112 27 -35 90 -37 113 -4 25 35 20
83 -10 107 -30 23 -49 26 -79 9z"/>
<path d="M1431 4265 l-68 -65 -37 15 c-31 13 -74 16 -236 13 -217 -3 -225 -5
-274 -72 -19 -25 -21 -41 -21 -201 0 -193 3 -204 75 -252 31 -22 42 -23 232
-23 222 0 250 6 291 64 20 29 22 44 25 207 l3 176 70 69 c38 37 69 74 69 81 0
16 -36 53 -51 53 -6 0 -41 -29 -78 -65z m-201 -192 c0 -11 -83 -93 -94 -93
-12 0 -96 81 -96 92 0 4 43 8 95 8 52 0 95 -3 95 -7z m-35 -174 c32 34 62 61
67 61 4 0 8 -29 8 -65 l0 -65 -162 2 -163 3 -3 79 c-2 44 0 86 3 95 4 11 30
-10 99 -78 l93 -93 58 61z"/>
<path d="M1615 3885 c-32 -31 -33 -74 -2 -103 l23 -22 987 0 c974 0 987 0
1007 20 28 28 26 81 -3 108 l-23 22 -983 0 -982 0 -24 -25z"/>
<path d="M1423 3469 c-59 -60 -62 -61 -93 -50 -20 7 -109 11 -230 11 -188 0
-199 -1 -230 -22 -72 -49 -75 -60 -75 -253 0 -160 2 -176 21 -201 49 -66 57
-69 267 -72 115 -2 206 1 227 7 20 6 51 27 70 46 l35 36 3 177 3 177 70 71
c72 75 80 92 53 118 -28 29 -57 18 -121 -45z m-193 -192 c0 -1 -22 -24 -48
-50 l-48 -47 -49 50 -49 50 97 0 c53 0 97 -1 97 -3z m-185 -147 l90 -90 68 68
68 67 -3 -70 -3 -70 -160 0 -160 0 -3 93 c-1 50 1 92 5 92 5 0 49 -40 98 -90z"/>
<path d="M1610 3090 c-28 -28 -26 -75 5 -105 l24 -25 979 0 c976 0 979 0 1006
21 33 26 36 79 6 109 -20 20 -33 20 -1010 20 -977 0 -990 0 -1010 -20z"/>
<path d="M4298 3087 c-42 -20 -420 -364 -1600 -1457 l-178 -164 -212 -373
-213 -373 -231 0 c-228 0 -231 0 -252 -23 -29 -31 -28 -72 3 -102 l24 -25 979
0 c976 0 979 0 1006 21 33 26 36 79 6 109 -20 20 -33 20 -565 20 -300 0 -545
3 -545 8 0 4 99 52 220 107 l219 100 698 644 c384 353 748 689 808 744 294
271 300 279 300 397 0 93 -15 123 -124 252 -63 75 -90 99 -129 116 -68 30
-152 29 -214 -1z m-192 -584 c54 -65 109 -130 122 -144 l22 -27 -252 -233
c-139 -129 -255 -236 -258 -239 -3 -3 -184 -172 -403 -374 -336 -310 -401
-366 -412 -355 -31 32 -235 274 -235 280 0 3 75 75 167 160 92 85 260 240 373
344 213 198 710 657 744 687 11 10 23 18 26 18 3 0 51 -53 106 -117z m-1413
-1337 c53 -63 98 -119 99 -126 3 -13 -445 -222 -450 -210 -3 9 244 450 252
450 2 0 46 -51 99 -114z"/>
<path d="M1420 2674 c-59 -57 -71 -64 -88 -55 -13 7 -99 11 -229 11 -191 0
-211 -2 -241 -20 -58 -35 -72 -83 -72 -250 0 -132 2 -150 22 -190 40 -79 61
-85 293 -85 224 0 246 6 292 75 22 31 23 43 23 203 l0 170 70 73 c39 39 70 78
70 86 0 20 -32 48 -54 48 -10 0 -49 -30 -86 -66z m-236 -239 c-20 -25 -38 -45
-41 -45 -14 0 -43 24 -67 55 l-27 35 86 0 86 0 -37 -45z m-139 -95 l91 -90 59
60 c33 33 63 60 67 60 4 0 8 -29 8 -65 l0 -65 -165 0 -165 0 0 95 c0 52 3 95
7 95 4 0 48 -41 98 -90z"/>
<path d="M1643 2313 c-41 -8 -64 -62 -47 -108 18 -45 23 -45 744 -45 l681 0
82 80 82 79 -760 -1 c-418 0 -770 -3 -782 -5z"/>
<path d="M884 1826 c-17 -8 -44 -31 -60 -52 l-29 -37 0 -173 c0 -192 3 -203
75 -251 31 -22 42 -23 232 -23 222 0 249 6 289 61 23 33 24 40 24 214 0 204
-4 217 -81 255 -36 18 -60 20 -230 20 -136 -1 -198 -5 -220 -14z m384 -264 l3
-122 -163 2 -163 3 -3 109 c-1 61 0 116 2 123 4 11 39 13 163 11 l158 -3 3
-123z"/>
<path d="M1615 1495 c-32 -31 -33 -74 -2 -103 23 -22 29 -22 338 -22 289 0
315 1 325 18 6 9 25 43 43 75 l32 57 -356 0 -356 0 -24 -25z"/>
<path d="M870 1018 c-72 -49 -75 -60 -75 -253 0 -160 2 -176 21 -201 49 -67
56 -69 275 -72 186 -3 203 -2 242 18 78 38 82 50 82 255 0 170 -1 182 -22 211
-41 58 -69 64 -291 64 -190 0 -201 -1 -232 -22z m400 -253 l0 -125 -162 2
-163 3 -3 109 c-1 61 0 116 2 123 4 10 42 13 166 13 l160 0 0 -125z"/>
</g>
</svg>
